<svg width="180" height="180" viewBox="0 0 180 180" fill="none" xmlns="http://www.w3.org/2000/svg">
  <!-- Left bracket -->
  <!-- Blue pill (bottom left) -->
  <path d="M20 110 C20 100, 28 92, 38 92 L62 92 C72 92, 80 100, 80 110 L80 150 C80 160, 72 168, 62 168 L38 168 C28 168, 20 160, 20 150 Z" fill="#4285F4" stroke="#2d2d2d" stroke-width="6"/>
  
  <!-- Red pill (top left) -->
  <path d="M20 30 C20 20, 28 12, 38 12 L62 12 C72 12, 80 20, 80 30 L80 70 C80 80, 72 88, 62 88 L38 88 C28 88, 20 80, 20 70 Z" fill="#EA4335" stroke="#2d2d2d" stroke-width="6"/>
  
  <!-- Right bracket -->
  <!-- Green pill (top right) -->
  <path d="M100 30 C100 20, 108 12, 118 12 L142 12 C152 12, 160 20, 160 30 L160 70 C160 80, 152 88, 142 88 L118 88 C108 88, 100 80, 100 70 Z" fill="#34A853" stroke="#2d2d2d" stroke-width="6"/>
  
  <!-- Yellow pill (bottom right) -->
  <path d="M100 110 C100 100, 108 92, 118 92 L142 92 C152 92, 160 100, 160 110 L160 150 C160 160, 152 168, 142 168 L118 168 C108 168, 100 160, 100 150 Z" fill="#FBBC04" stroke="#2d2d2d" stroke-width="6"/>
</svg>